<?xml version="1.0" encoding="utf-8"?>
<!-- Generator: Adobe Illustrator 24.1.2, SVG Export Plug-In . SVG Version: 6.00 Build 0)  -->
<svg version="1.1" xmlns="http://www.w3.org/2000/svg" xmlns:xlink="http://www.w3.org/1999/xlink" x="0px" y="0px"
	 viewBox="0 0 128 128" style="enable-background:new 0 0 128 128;" xml:space="preserve">
<style type="text/css">
	.st0{display:none;}
	.st1{display:inline;}
	.st2{opacity:0.75;}
	.st3{fill:none;stroke:#404040;stroke-miterlimit:10;}
	.st4{opacity:0.75;fill:none;stroke:#404040;stroke-miterlimit:10;}
	.st5{display:inline;fill:none;stroke:#1A1A1A;stroke-miterlimit:10;}
</style>
<g id="Background" class="st0">
	<rect class="st1" width="128" height="128"/>
</g>
<g id="Crosses">
	<g class="st2">
		<g>
			<line class="st3" x1="64" y1="61.8" x2="64" y2="66.3"/>
		</g>
		<line class="st3" x1="61.8" y1="64" x2="66.3" y2="64"/>
	</g>
	<g class="st2">
		<g>
			<line class="st3" x1="0" y1="61.8" x2="0" y2="66.3"/>
		</g>
		<line class="st3" x1="-2.3" y1="64" x2="2.3" y2="64"/>
	</g>
	<g class="st2">
		<g>
			<line class="st3" x1="128" y1="61.8" x2="128" y2="66.3"/>
		</g>
		<line class="st3" x1="125.8" y1="64" x2="130.3" y2="64"/>
	</g>
	<g class="st2">
		<g>
			<line class="st3" x1="64" y1="-2.3" x2="64" y2="2.3"/>
		</g>
		<line class="st3" x1="61.8" y1="0" x2="66.3" y2="0"/>
	</g>
	<g class="st2">
		<g>
			<line class="st3" x1="0" y1="-2.3" x2="0" y2="2.3"/>
		</g>
		<line class="st3" x1="-2.3" y1="0" x2="2.3" y2="0"/>
	</g>
	<g class="st2">
		<g>
			<line class="st3" x1="128" y1="-2.3" x2="128" y2="2.3"/>
		</g>
		<line class="st3" x1="125.8" y1="0" x2="130.3" y2="0"/>
	</g>
	<g class="st2">
		<g>
			<line class="st3" x1="64" y1="125.8" x2="64" y2="130.3"/>
		</g>
		<line class="st3" x1="61.8" y1="128" x2="66.3" y2="128"/>
	</g>
	<g class="st2">
		<g>
			<line class="st3" x1="0" y1="125.8" x2="0" y2="130.3"/>
		</g>
		<line class="st3" x1="-2.3" y1="128" x2="2.3" y2="128"/>
	</g>
	<g class="st2">
		<g>
			<line class="st3" x1="128" y1="125.8" x2="128" y2="130.3"/>
		</g>
		<line class="st3" x1="125.8" y1="128" x2="130.3" y2="128"/>
	</g>
</g>
<g id="Dots">
	<line class="st4" x1="0" y1="31.5" x2="0" y2="32.5"/>
	<line class="st4" x1="0" y1="95.5" x2="0" y2="96.5"/>
	<line class="st4" x1="32" y1="-0.5" x2="32" y2="0.5"/>
	<line class="st4" x1="32" y1="31.5" x2="32" y2="32.5"/>
	<line class="st4" x1="32" y1="63.5" x2="32" y2="64.5"/>
	<line class="st4" x1="32" y1="95.5" x2="32" y2="96.5"/>
	<line class="st4" x1="32" y1="127.5" x2="32" y2="128.5"/>
	<line class="st4" x1="64" y1="31.5" x2="64" y2="32.5"/>
	<line class="st4" x1="64" y1="95.5" x2="64" y2="96.5"/>
	<line class="st4" x1="96" y1="-0.5" x2="96" y2="0.5"/>
	<line class="st4" x1="96" y1="31.5" x2="96" y2="32.5"/>
	<line class="st4" x1="96" y1="63.5" x2="96" y2="64.5"/>
	<line class="st4" x1="96" y1="95.5" x2="96" y2="96.5"/>
	<line class="st4" x1="96" y1="127.5" x2="96" y2="128.5"/>
	<line class="st4" x1="128" y1="31.5" x2="128" y2="32.5"/>
	<line class="st4" x1="128" y1="95.5" x2="128" y2="96.5"/>
</g>
<g id="Ebene_4" class="st0">
	<line class="st5" x1="0" y1="0" x2="128" y2="0"/>
	<line class="st5" x1="0" y1="128" x2="128" y2="128"/>
</g>
</svg>
