<?xml version="1.0" encoding="utf-8"?>
<!-- Generator: Adobe Illustrator 27.0.0, SVG Export Plug-In . SVG Version: 6.00 Build 0)  -->
<svg version="1.1" id="Ebene_1" xmlns="http://www.w3.org/2000/svg" xmlns:xlink="http://www.w3.org/1999/xlink" x="0px" y="0px"
	 viewBox="0 0 595.28 600.85" style="enable-background:new 0 0 595.28 600.85;" xml:space="preserve">
<style type="text/css">
	.st0{fill:#010202;}
	.st1{fill:#A9A9AB;}
</style>
<g>
	<g>
		<path class="st0" d="M284.07,580.21l-10.52-17.35l1.25-6.62c0.69-3.64,5.49-29.3,10.66-57.01c11.66-62.47,10.85-58.2,10.97-58.08
			c0.11,0.11,4.28,26.44,13.11,82.83c3.21,20.48,5.93,37.56,6.05,37.95c0.12,0.39-1.7,3.88-4.08,7.8
			c-2.36,3.9-7.01,11.61-10.34,17.13c-3.32,5.52-6.17,10.18-6.32,10.36C294.71,597.41,289.85,589.75,284.07,580.21L284.07,580.21z
			 M325.17,564.85c0-0.17-3.68-23.7-9.33-59.61c-1.72-10.91-5.35-34-8.06-51.29c-2.72-17.3-6.14-39.07-7.61-48.39
			c-1.46-9.32-2.74-17.15-2.83-17.39c-0.23-0.66-0.42,0.26-3.82,18.51c-1.71,9.2-6.03,32.38-9.61,51.51
			c-3.58,19.14-9.31,49.84-12.75,68.24c-7.7,41.27-7.06,38.13-7.69,38.13c-1.37-0.02-12.83-1.94-18.81-3.17
			c-13.27-2.71-26.24-6.46-39.25-11.33c-8.6-3.22-16.42-6.66-16.63-7.3c-0.08-0.24,1.09-4.21,2.61-8.82
			c8.3-25.32,27.57-84.45,34.86-106.96c2.7-8.34,5.01-15.37,5.12-15.61c0.48-1.01-3.08,2.93-62.27,68.89
			c-6.72,7.49-13.87,15.43-15.87,17.64c-2.01,2.21-5.93,6.57-8.72,9.7c-2.79,3.12-5.19,5.68-5.35,5.68c-0.15,0-2.57-1.83-5.37-4.07
			c-17.48-13.97-33.22-30.26-46.73-48.34c-14.72-19.7-26.17-40.23-35.09-62.89c-2.96-7.51-6.69-18.43-6.4-18.72
			c0.09-0.09,11.21,2.32,24.7,5.36c13.49,3.04,24.8,5.54,25.15,5.54c0.34,0-0.71-1-2.34-2.24c-1.63-1.24-2.97-2.43-2.97-2.65
			c0-0.22-0.39-0.53-0.88-0.68c-0.48-0.16-4.88-3.33-9.77-7.05c-4.89-3.73-16.41-12.5-25.6-19.49l-16.71-12.71l-0.95-6.46
			c-2.43-16.7-3.38-34.18-2.72-50.33c0.4-9.77,1.12-18.75,1.53-19.16c0.11-0.11,4.88,4.21,10.59,9.59
			c22.77,21.47,33.68,31.67,34.26,32.03c0.35,0.22,0.22-0.26-0.32-1.15c-0.51-0.84-7.4-12.77-15.31-26.51
			c-7.91-13.73-16.69-28.96-19.5-33.84c-5.97-10.37-5.74-8.27-2.35-20.94c3.54-13.23,8.38-27.11,13.46-38.63
			c5.23-11.86,15.3-30.77,15.99-30.06c0.68,0.71,10.19,27.85,12.02,34.32c3.32,11.71,10.03,30.22,14.46,39.88
			c1.12,2.45,1.12,2.45,0.91,0.67c-0.12-0.98-1.62-18.64-3.34-39.25c-1.71-20.61-3.62-43.34-4.24-50.53l-1.12-13.07l2.77-3.43
			c19.09-23.67,43.14-44.6,69.5-60.5c12.42-7.49,31.99-16.69,46.39-21.82c10.94-3.89,29.74-8.66,36.35-9.21
			c2.7-0.23,7.12-0.8,9.81-1.27c7.75-1.36,11.37-1.62,11.37-0.82c0,0.73-3.08,1.66-12.23,3.7c-5.96,1.32-18.1,5.32-25.75,8.47
			c-20.15,8.3-40.04,21.56-55.46,36.98c-16.26,16.25-28.26,34-38.04,56.23c-6.19,14.07-10.87,32.71-12.82,51.04
			c-0.76,7.13-0.87,27.39-0.18,32.98c3.15,25.57,7.39,40.79,16.77,60.24c5.39,11.16,10.11,19,16.81,27.88
			c3.74,4.96,11.29,13.77,14.41,16.82l2.6,2.55l0.05-10.81c0.03-5.94,0.38-14.65,0.78-19.36c2.9-34.18,14.24-64.45,33.71-90.01
			c4.68-6.14,16.64-18,22.13-21.93c9.26-6.64,19.51-12.1,28.19-15.01l4.5-1.51l-3.21-0.27c-7.31-0.6-19,1.31-27.51,4.47
			c-1.59,0.59-5.07,2.1-7.71,3.35c-4.37,2.07-4.88,2.22-5.51,1.58c-1.12-1.12-0.42-2.22,4.22-6.67c5.08-4.86,9.6-7.99,16.22-11.21
			c2.62-1.27,4.78-2.43,4.8-2.57c0.05-0.4-6.35,0.4-11.2,1.4c-10.52,2.18-22.42,7.18-31.36,13.19c-2.5,1.68-3,1.79-3.8,0.81
			c-0.46-0.56-0.38-0.94,0.5-2.17c1.52-2.14,8.94-9.69,10.55-10.75c0.75-0.49,3.64-2.61,6.42-4.71c6.23-4.72,8.7-6.2,16.88-10.2
			c12.77-6.23,26.24-9.72,41.32-10.7c8.08-0.52,23.57,0.12,30.48,1.26c18.05,2.98,36.27,9.08,51.07,17.11
			c27.68,15.01,46.55,34.76,53.21,55.67c1.95,6.11,2.45,9.01,2.45,14.01c0,7.86-2.3,15.51-6.97,23.2c-4.01,6.61-7,9.71-8.2,8.5
			c-0.16-0.16-0.25-2.84-0.19-5.97c0.09-5.28,0.01-5.93-1.23-9.43c-1.52-4.32-4.57-9.04-7.56-11.7
			c-7.12-6.35-17.61-11.19-29.27-13.53c-20.52-4.11-42.19-1.84-58.02,6.05c-15.91,7.94-26.87,23.17-28.86,40.11
			c-0.94,7.96-0.38,18.64,1.28,24.49c3.36,11.83,5.45,16.77,10.41,24.55c4.21,6.6,6.95,9.96,12.58,15.44
			c11.42,11.1,23.95,18.05,39.34,21.84c21.74,5.35,42.14,3.98,61.84-4.14c6.4-2.64,10.44-4.85,17.48-9.58
			c5.7-3.83,7.86-5.63,13.71-11.48c7.73-7.7,8.79-8.88,12.82-14.19c5.06-6.67,9.42-13.82,14.09-23.09
			c7.5-14.9,14.8-39.14,16.39-54.43c0.25-2.43,0.67-6.22,0.93-8.43c0.58-5,0.57-28.41-0.01-34.12c-1.38-13.54-5.35-30.98-9.75-42.82
			c-4.51-12.12-11.45-25.84-18.18-35.9c-6.47-9.67-15.42-20.8-22.05-27.42c-6.5-6.49-19.68-17.32-25.86-21.25
			c-21.38-13.57-35.96-19.95-57.53-25.17c-8.95-2.16-10.82-2.73-11.02-3.37c-0.29-0.87,4.99-1.1,9.82-0.41
			c5.82,0.82,15.71,2.81,26.62,5.34c9.8,2.28,22.55,6.62,34.84,11.87c18.67,7.98,35.75,17.16,47.97,25.79
			c6.1,4.3,23.95,18.12,26.91,20.84c9.36,8.55,19.13,18.79,26.9,28.2c2.82,3.41,3.43,4.41,3.43,5.69c0,2.28-8.42,101.47-8.72,102.78
			c-1.55,6.69,10.25-24.36,14.07-37.02c1.58-5.23,13.33-38.39,13.79-38.9c0.59-0.66,7.67,12.18,13.68,24.86
			c4.27,8.98,7.98,18.28,11.5,28.77c2.73,8.12,6.96,23.36,6.97,25.07c0,0.42-1.37,3.13-3.05,6.02c-1.68,2.89-6.63,11.48-11,19.09
			c-14.88,25.86-26.2,45.49-27.14,47.05c-0.94,1.56-0.94,1.56,0.22,0.67c1.8-1.38,15.43-14.01,22.88-21.2
			c5.9-5.69,18.86-17.89,22.15-20.84c1.16-1.04,1.16-1.04,1.67,4.04c2.07,20.43,1.42,45.74-1.69,66.24
			c-0.46,3.02-0.91,5.55-0.99,5.62c-0.09,0.07-5.57,4.23-12.2,9.25c-6.62,5.02-18.06,13.72-25.42,19.32
			c-7.36,5.6-13.88,10.5-14.5,10.89c-1.71,1.09-7.58,5.99-7.39,6.18c0.16,0.16,49.79-10.91,50.98-11.37
			c0.73-0.28-0.07,2.4-3.72,12.47c-16.86,46.58-45.86,87.05-84.92,118.49c-2.82,2.27-5.46,4.31-5.87,4.53
			c-0.57,0.31-1.07,0.02-2.19-1.26c-7.49-8.6-91.14-101.32-91.28-101.18c-0.1,0.1,0.11,1.06,0.47,2.12
			c2.18,6.45,42.22,129.63,42.22,129.89c0,1.35-23.78,10.03-38.58,14.08C351.72,561.39,325.17,566.1,325.17,564.85L325.17,564.85z
			 M148.1,555.11c0-0.07-0.5-7.66-1.11-16.86c-0.61-9.2-1.11-17.14-1.11-17.65c0-0.59,5.34-6.88,14.78-17.39
			c33.75-37.59,48.68-54.15,48.79-54.15c0.07,0-1.25,4.16-2.93,9.25c-1.68,5.09-8.32,25.44-14.76,45.22l-11.71,35.96l-15.64,7.72
			c-8.6,4.25-15.79,7.8-15.97,7.88C148.25,555.18,148.1,555.19,148.1,555.11L148.1,555.11z M427.48,547.38
			c-8.61-4.22-15.79-7.9-15.96-8.16c-0.48-0.78-29.26-89.43-29.09-89.6c0.09-0.09,14.36,15.63,31.71,34.93l31.55,35.09l-0.98,16.11
			c-0.54,8.85-1.11,16.82-1.28,17.7C443.14,555.06,443.14,555.06,427.48,547.38L427.48,547.38z M427.48,547.38"/>
	</g>
</g>
<g>
	<g>
		<path class="st1" d="M284.07,571.71l-10.52-17.35l1.25-6.62c0.69-3.64,5.49-29.3,10.66-57.02c11.66-62.47,10.85-58.2,10.97-58.08
			c0.11,0.11,4.28,26.44,13.11,82.83c3.21,20.48,5.93,37.56,6.05,37.95c0.12,0.39-1.7,3.88-4.08,7.8
			c-2.36,3.9-7.01,11.61-10.34,17.13c-3.32,5.52-6.17,10.18-6.32,10.36C294.71,588.91,289.85,581.25,284.07,571.71L284.07,571.71z
			 M325.17,556.35c0-0.17-3.68-23.7-9.33-59.61c-1.72-10.91-5.35-34-8.06-51.29c-2.72-17.3-6.14-39.07-7.61-48.39
			c-1.46-9.32-2.74-17.15-2.83-17.39c-0.23-0.66-0.42,0.26-3.82,18.51c-1.71,9.2-6.03,32.38-9.61,51.51
			c-3.58,19.14-9.31,49.84-12.75,68.24c-7.7,41.26-7.06,38.13-7.69,38.13c-1.37-0.02-12.83-1.94-18.81-3.16
			c-13.27-2.71-26.24-6.46-39.25-11.34c-8.6-3.22-16.42-6.66-16.63-7.3c-0.08-0.24,1.09-4.21,2.61-8.82
			c8.3-25.32,27.57-84.45,34.86-106.96c2.7-8.34,5.01-15.37,5.12-15.61c0.48-1.01-3.08,2.93-62.27,68.89
			c-6.72,7.49-13.87,15.43-15.87,17.64c-2.01,2.21-5.93,6.57-8.72,9.7c-2.79,3.12-5.19,5.68-5.35,5.68c-0.15,0-2.57-1.83-5.37-4.07
			c-17.48-13.97-33.22-30.26-46.73-48.34c-14.72-19.7-26.17-40.23-35.09-62.89c-2.96-7.51-6.69-18.43-6.4-18.72
			c0.09-0.09,11.21,2.32,24.7,5.36c13.49,3.04,24.8,5.54,25.15,5.54c0.34,0-0.71-1-2.34-2.24c-1.63-1.24-2.97-2.43-2.97-2.65
			c0-0.22-0.39-0.53-0.88-0.68c-0.48-0.16-4.88-3.33-9.77-7.05c-4.89-3.73-16.41-12.5-25.6-19.49l-16.71-12.71l-0.95-6.46
			c-2.43-16.7-3.38-34.18-2.72-50.33c0.4-9.77,1.12-18.75,1.53-19.16c0.11-0.11,4.88,4.21,10.59,9.59
			c22.77,21.47,33.68,31.67,34.26,32.03c0.35,0.22,0.22-0.26-0.32-1.15c-0.51-0.84-7.4-12.77-15.31-26.51
			c-7.91-13.73-16.69-28.96-19.5-33.84c-5.97-10.37-5.74-8.27-2.35-20.94c3.54-13.23,8.38-27.11,13.46-38.63
			c5.23-11.86,15.3-30.77,15.99-30.06c0.68,0.71,10.19,27.85,12.02,34.32c3.32,11.71,10.03,30.22,14.46,39.88
			c1.12,2.45,1.12,2.45,0.91,0.67c-0.12-0.98-1.62-18.64-3.34-39.25c-1.71-20.61-3.62-43.34-4.24-50.53l-1.12-13.07l2.77-3.43
			c19.09-23.67,43.14-44.6,69.5-60.5c12.42-7.49,31.99-16.69,46.39-21.82c10.94-3.89,29.74-8.66,36.35-9.21
			c2.7-0.23,7.12-0.8,9.81-1.27c7.75-1.36,11.37-1.62,11.37-0.82c0,0.73-3.08,1.66-12.23,3.7c-5.96,1.32-18.1,5.32-25.75,8.47
			c-20.15,8.3-40.04,21.56-55.46,36.98c-16.26,16.25-28.26,34-38.04,56.23c-6.19,14.07-10.87,32.71-12.82,51.04
			c-0.76,7.13-0.87,27.39-0.18,32.98c3.15,25.57,7.39,40.79,16.77,60.24c5.39,11.16,10.11,19,16.81,27.88
			c3.74,4.96,11.29,13.77,14.41,16.82l2.6,2.55l0.05-10.81c0.03-5.94,0.38-14.65,0.78-19.36c2.9-34.18,14.24-64.45,33.71-90.01
			c4.68-6.14,16.64-18,22.13-21.93c9.26-6.64,19.51-12.1,28.19-15.01l4.5-1.51l-3.21-0.27c-7.31-0.6-19,1.31-27.51,4.47
			c-1.59,0.59-5.07,2.1-7.71,3.35c-4.37,2.07-4.88,2.22-5.51,1.58c-1.12-1.12-0.42-2.22,4.22-6.67c5.08-4.86,9.6-7.99,16.22-11.21
			c2.62-1.27,4.78-2.43,4.8-2.57c0.05-0.4-6.35,0.4-11.2,1.4c-10.52,2.18-22.42,7.18-31.36,13.19c-2.5,1.68-3,1.79-3.8,0.81
			c-0.46-0.56-0.38-0.94,0.5-2.17c1.52-2.14,8.94-9.69,10.55-10.75c0.75-0.49,3.64-2.61,6.42-4.71c6.23-4.72,8.7-6.2,16.88-10.2
			c12.77-6.23,26.24-9.72,41.32-10.7c8.08-0.52,23.57,0.12,30.48,1.26c18.05,2.98,36.27,9.08,51.07,17.11
			c27.68,15.01,46.55,34.76,53.21,55.67c1.95,6.11,2.45,9.01,2.45,14.01c0,7.86-2.3,15.51-6.97,23.2c-4.01,6.61-7,9.71-8.2,8.5
			c-0.16-0.16-0.25-2.84-0.19-5.97c0.09-5.28,0.01-5.93-1.23-9.43c-1.52-4.32-4.57-9.04-7.56-11.7
			c-7.12-6.35-17.61-11.19-29.27-13.53c-20.52-4.11-42.19-1.84-58.02,6.05c-15.91,7.94-26.87,23.17-28.86,40.11
			c-0.94,7.96-0.38,18.64,1.28,24.49c3.36,11.83,5.45,16.77,10.41,24.55c4.21,6.6,6.95,9.96,12.58,15.44
			c11.42,11.1,23.95,18.05,39.34,21.84c21.74,5.35,42.14,3.98,61.84-4.14c6.4-2.64,10.44-4.85,17.48-9.58
			c5.7-3.83,7.86-5.63,13.71-11.48c7.73-7.7,8.79-8.88,12.82-14.19c5.06-6.67,9.42-13.82,14.09-23.09
			c7.5-14.9,14.8-39.14,16.39-54.43c0.25-2.43,0.67-6.22,0.93-8.43c0.58-5,0.57-28.41-0.01-34.12c-1.38-13.54-5.35-30.98-9.75-42.82
			c-4.51-12.12-11.45-25.84-18.18-35.9c-6.47-9.67-15.42-20.8-22.05-27.42c-6.5-6.49-19.68-17.32-25.86-21.25
			c-21.38-13.57-35.96-19.95-57.53-25.17c-8.95-2.16-10.82-2.73-11.02-3.37c-0.29-0.87,4.99-1.1,9.82-0.41
			c5.82,0.82,15.71,2.81,26.62,5.34c9.8,2.28,22.55,6.62,34.84,11.87c18.67,7.98,35.75,17.16,47.97,25.79
			c6.1,4.3,23.95,18.12,26.91,20.84c9.36,8.55,19.13,18.79,26.9,28.2c2.82,3.41,3.43,4.41,3.43,5.69c0,2.28-8.42,101.47-8.72,102.78
			c-1.55,6.69,10.25-24.36,14.07-37.02c1.58-5.23,13.33-38.39,13.79-38.9c0.59-0.66,7.67,12.18,13.68,24.86
			c4.27,8.98,7.98,18.28,11.5,28.77c2.73,8.12,6.96,23.36,6.97,25.07c0,0.42-1.37,3.13-3.05,6.02c-1.68,2.89-6.63,11.48-11,19.09
			c-14.88,25.86-26.2,45.49-27.14,47.05c-0.94,1.56-0.94,1.56,0.22,0.67c1.8-1.38,15.43-14.01,22.88-21.2
			c5.9-5.69,18.86-17.89,22.15-20.84c1.16-1.04,1.16-1.04,1.67,4.04c2.07,20.43,1.42,45.74-1.69,66.24
			c-0.46,3.02-0.91,5.55-0.99,5.62c-0.09,0.07-5.57,4.23-12.2,9.25c-6.62,5.02-18.06,13.72-25.42,19.32
			c-7.36,5.6-13.88,10.5-14.5,10.89c-1.71,1.09-7.58,5.99-7.39,6.18c0.16,0.16,49.79-10.91,50.98-11.37
			c0.73-0.28-0.07,2.4-3.72,12.47c-16.86,46.58-45.86,87.05-84.92,118.49c-2.82,2.27-5.46,4.31-5.87,4.53
			c-0.57,0.31-1.07,0.02-2.19-1.26c-7.49-8.6-91.14-101.32-91.28-101.18c-0.1,0.1,0.11,1.06,0.47,2.12
			c2.18,6.45,42.22,129.63,42.22,129.89c0,1.35-23.78,10.03-38.58,14.08C351.72,552.89,325.17,557.6,325.17,556.35L325.17,556.35z
			 M148.1,546.61c0-0.07-0.5-7.66-1.11-16.86c-0.61-9.2-1.11-17.14-1.11-17.65c0-0.59,5.34-6.88,14.78-17.4
			c33.75-37.59,48.68-54.15,48.79-54.15c0.07,0-1.25,4.16-2.93,9.25c-1.68,5.09-8.32,25.44-14.76,45.22l-11.71,35.96l-15.64,7.72
			c-8.6,4.25-15.79,7.8-15.97,7.88C148.25,546.68,148.1,546.69,148.1,546.61L148.1,546.61z M427.47,538.88
			c-8.61-4.22-15.79-7.89-15.96-8.16c-0.48-0.78-29.26-89.43-29.09-89.6c0.09-0.09,14.36,15.63,31.71,34.93l31.55,35.09l-0.98,16.11
			c-0.54,8.85-1.11,16.82-1.28,17.7C443.13,546.56,443.13,546.56,427.47,538.88L427.47,538.88z M427.47,538.88"/>
	</g>
</g>
</svg>
